<svg width="125" height="125" viewBox="0 0 125 125" fill="none" xmlns="http://www.w3.org/2000/svg">
<g clip-path="url(#clip0_104:2)">
<path d="M62.3 0C27.9 0 0 27.9 0 62.3C0 96.7 27.9 124.6 62.3 124.6C96.7 124.6 124.6 96.7 124.6 62.3C124.7 27.9 96.8 0 62.3 0ZM59.5 93C56.1 95.4 52 96.8 47.9 96.8C40.7 96.8 34.1 92.9 29.1 85.7C24.6 78.8 22.1 70.8 21.9 62.6C21.9 62.3 22.1 62 22.4 61.9L27.3 59.7C27.7 59.5 28.1 59.7 28.3 60.1C28.3 60.2 28.4 60.3 28.4 60.4C28.4 68.6 30.6 76.3 34.5 82C38.2 87.4 43 90.3 48 90.3C50.7 90.3 53.4 89.5 55.6 88C55.9 87.8 56.4 87.9 56.6 88.2C57.6 89.5 58.6 90.7 59.7 91.9C59.8 92.2 59.8 92.7 59.5 93ZM95.6 85.7C90.7 92.8 84 96.8 76.8 96.8C69.6 96.8 63 92.8 58 85.7C53.3 78.9 50.7 69.9 50.7 60.4C50.7 51.6 55.8 44.7 62.2 44.7C68.6 44.7 73.7 51.6 73.7 60.4C73.8 68.1 72 75.6 68.4 82.4C68.2 82.8 67.7 82.9 67.4 82.7C67.3 82.7 67.3 82.6 67.2 82.5C66.6 81.8 66 81.1 65.5 80.4C64.9 79.5 64.4 78.7 63.9 77.7C63.8 77.5 63.8 77.2 63.9 77C66.2 71.7 67.3 66 67.3 60.3C67.3 56 65.1 51.1 62.2 51.1C59.3 51.1 57.1 56 57.1 60.3C57.1 68.5 59.3 76.2 63.2 81.9C66.9 87.3 71.7 90.2 76.7 90.2C81.7 90.2 86.5 87.2 90.2 81.9C94.1 76.2 96.3 68.5 96.3 60.3C96.3 52.1 94.1 44.4 90.2 38.7C89.1 37 87.7 35.5 86.2 34.2C85.9 33.9 85.9 33.4 86.1 33.1C86.2 33 86.3 32.9 86.4 32.9L91.3 30.7C91.6 30.6 91.9 30.6 92.1 30.9C93.4 32.2 94.5 33.6 95.5 35C100.2 41.8 102.8 50.8 102.8 60.3C102.8 69.8 100.3 78.9 95.6 85.7Z" fill="#15D824"/>
</g>
<defs>
<clipPath id="clip0_104:2">
<rect width="124.7" height="124.7" fill="white"/>
</clipPath>
</defs>
</svg>
